<?xml version="1.0" encoding="UTF-8"?>
<!DOCTYPE svg PUBLIC "-//W3C//DTD SVG 1.1//EN" "http://www.w3.org/Graphics/SVG/1.1/DTD/svg11.dtd">
<svg viewBox="0 0 512 512" version="1.1" xmlns="http://www.w3.org/2000/svg">
<rect width="512" height="512" x="0" y="0" fill="#6a9fb5"/>
<path d="m 314.00543,396.25 q -1,6 -9,13.5 -7.5,7.5 -17.5,14.5 -10,7 -20.5,12.5 -10.5,5.5 -17,8 -5,2.5 -10.5,5.5 -5,3 -10.5,6 -5.5,2.5 -11,5.5 -5,3 -10.5,6 -5.5,2.5 -12.5,4.5 -7,2.5 -15,3.5 -14.5,0 -11.5,-15.5 6,-30.5 36,-39.5 l 29.5,-7.5 h 2 q 0.5,-0.5 1.5,-0.5 4.5,-1.5 10.5,-4 6.5,-2.5 12.5,-6 6,-3 10.5,-7.5 5,-4.5 6,-10 3,-12 -9,-18 -3,-2 -5.5,-2.5 l -20.5,4.5 q -15.5,3 -32,3 -51.5,0 -68,-30.5 -10,-20 3.5,-87 4.5,-21.5 14.5,-42.5 10,-21.5 23,-41.5 13.5,-20 28,-38.5 15,-18.5 29,-34.5 -22.5,-4.5 -21,-19 v -5 q 0,-3.5 0.5,-5 v -7.5 q 4.5,-22 28,-25 9,0 25,15.5 2,2 4,3 1,1 3,4 2.5,2.5 4,2.5 3.5,5 8.5,5 2,0.5 5,0.5 3,0 4,-1 15.5,-10 31,-13 h -0.5 q 6,-1.5 13,-1.5 14.5,0 22.5,9 8,8.5 5.5,23.5 -5.5,25.5 -40,36 -2,1 -9,1.5 -6.5,0 -9,0 -6,0 -20.5,-4 -7,-3.5 -10,-3.5 -7.5,0 -40.5,43.5 -39.5,51 -54,114 -6,26.5 -1,43 2.5,8 5,12 2.5,3.5 11.5,3.5 10,0 29.5,-4.5 h -0.5 q 8.5,-2 17.5,-3 9,-1.5 17.5,-1.5 14.5,0 25,7.5 29.5,21.5 20,68 z" fill="white"/>
</svg>
